<svg width="254" height="182" viewBox="0 0 254 182" fill="none" xmlns="http://www.w3.org/2000/svg">
<path opacity="0.7" d="M130.718 90.2451C142.287 101.302 160.504 132.693 140.823 169.803" stroke="#FFA116" stroke-width="1.35829" stroke-dasharray="3.88 3.88"/>
<path opacity="0.7" d="M50.0459 79.2114C69.7002 70.1293 102.062 65.8909 128.832 88.3789" stroke="#FFA116" stroke-width="1.35829"/>
<path d="M81.2389 33.0765C82.3317 32.1119 84.0546 32.5735 84.5187 33.9554L85.7685 37.6768C85.9244 38.141 86.2422 38.5335 86.6639 38.7825L90.0441 40.7788C91.2993 41.52 91.3927 43.3012 90.2219 44.1696L87.0687 46.5082C86.6754 46.7999 86.4004 47.2235 86.2938 47.7014L85.4399 51.5332C85.1228 52.956 83.4576 53.5952 82.2699 52.75L79.0714 50.4739C78.6724 50.19 78.1846 50.0592 77.6971 50.1056L73.789 50.4775C72.3379 50.6156 71.2154 49.2295 71.6522 47.8388L72.8285 44.0934C72.9752 43.6263 72.9488 43.1219 72.7541 42.6726L71.1927 39.0707C70.6129 37.7333 71.5843 36.2374 73.042 36.223L76.9675 36.1844C77.4572 36.1796 77.9287 35.9986 78.2958 35.6745L81.2389 33.0765Z" fill="#FFD952"/>
<path d="M92.7325 29.7314C93.1266 29.3835 93.748 29.55 93.9154 30.0483L94.3661 31.3905C94.4223 31.5579 94.537 31.6995 94.689 31.7893L95.9081 32.5092C96.3608 32.7766 96.3945 33.4189 95.9722 33.7321L94.8351 34.5756C94.6932 34.6808 94.594 34.8336 94.5556 35.0059L94.2476 36.3878C94.1332 36.901 93.5327 37.1315 93.1043 36.8267L91.9508 36.0058C91.8069 35.9034 91.6309 35.8563 91.4551 35.873L90.0457 36.0071C89.5223 36.0569 89.1175 35.557 89.275 35.0554L89.6993 33.7047C89.7522 33.5362 89.7426 33.3543 89.6724 33.1922L89.1093 31.8932C88.9002 31.4109 89.2505 30.8714 89.7762 30.8662L91.192 30.8523C91.3686 30.8505 91.5387 30.7852 91.6711 30.6684L92.7325 29.7314Z" fill="#FFD952"/>
<g filter="url(#filter0_dd_4980_20424)">
<path d="M38.5122 36.9395C40.4327 33.6131 44.6861 32.4734 48.0126 34.3939L49.1569 35.0545C52.1764 36.7979 53.303 40.5998 51.7208 43.7067C51.5097 44.1212 51.6856 44.6281 52.108 44.8228L66.5431 51.4763C74.3578 55.0783 77.6441 64.4306 73.8004 72.1294L67.5357 84.6769C62.8256 94.1109 51.1658 97.6637 41.9953 92.4592L31.3475 86.4165C22.4645 81.3752 19.3884 70.0629 24.4953 61.2174L38.5122 36.9395Z" fill="white"/>
<path d="M60.1647 74.2225C61.0008 72.7768 62.8493 72.2847 64.2935 73.1233C65.7377 73.9619 66.2307 75.8137 65.3946 77.2593L61.6821 83.6787C58.257 89.6013 50.6497 91.7122 44.6674 88.4064C44.6328 88.3874 41.9592 86.8786 33.1389 81.9009C27.2711 78.5896 24.8545 71.4227 27.9729 65.5689L33.7869 54.6542C36.8816 48.844 44.7457 46.1924 50.7832 48.8757L59.7929 52.8803C61.3187 53.5584 62.0078 55.3465 61.332 56.874C60.6562 58.4015 58.8714 59.09 57.3456 58.4118L48.3359 54.4073C45.1785 53.004 40.7161 54.5086 39.1193 57.5065L33.3052 68.4214C31.7871 71.2711 33.0042 74.8806 36.102 76.6288C42.5789 80.284 47.5705 83.1008 47.5763 83.104C50.6865 84.8227 54.6743 83.7161 56.4521 80.6419L60.1647 74.2225Z" fill="#FFA116"/>
<path fill-rule="evenodd" clip-rule="evenodd" d="M46.495 72.4568C44.8833 72.8886 43.2261 71.9299 42.7935 70.3153C42.3609 68.7008 43.3167 67.0419 44.9284 66.61L66.4505 60.8432C68.0622 60.4114 69.7195 61.3701 70.1521 62.9846C70.5847 64.5991 69.6289 66.2582 68.0171 66.69L46.495 72.4568Z" fill="#B3B3B3"/>
<path fill-rule="evenodd" clip-rule="evenodd" d="M41.9419 39.3447C42.7271 37.8706 44.5573 37.3142 46.0298 38.1018C47.5023 38.8895 48.0594 40.723 47.2743 42.197L33.3053 68.4214C31.7871 71.271 33.0041 74.8805 36.1019 76.6288L47.5255 83.0758C48.9799 83.8966 49.4955 85.7422 48.6773 87.198C47.859 88.6539 46.0167 89.1687 44.5623 88.3479L33.1386 81.9009C27.271 78.5893 24.8544 71.4223 27.973 65.5688L41.9419 39.3447Z" fill="#1A1A1A"/>
</g>
<defs>
<filter id="filter0_dd_4980_20424" x="17.9525" y="32.1026" width="61.5316" height="69.5494" filterUnits="userSpaceOnUse" color-interpolation-filters="sRGB">
<feFlood flood-opacity="0" result="BackgroundImageFix"/>
<feColorMatrix in="SourceAlpha" type="matrix" values="0 0 0 0 0 0 0 0 0 0 0 0 0 0 0 0 0 0 127 0" result="hardAlpha"/>
<feOffset dy="1.35829"/>
<feGaussianBlur stdDeviation="1.35829"/>
<feComposite in2="hardAlpha" operator="out"/>
<feColorMatrix type="matrix" values="0 0 0 0 0 0 0 0 0 0 0 0 0 0 0 0 0 0 0.1 0"/>
<feBlend mode="normal" in2="BackgroundImageFix" result="effect1_dropShadow_4980_20424"/>
<feColorMatrix in="SourceAlpha" type="matrix" values="0 0 0 0 0 0 0 0 0 0 0 0 0 0 0 0 0 0 127 0" result="hardAlpha"/>
<feOffset dy="2.71658"/>
<feGaussianBlur stdDeviation="2.03743"/>
<feComposite in2="hardAlpha" operator="out"/>
<feColorMatrix type="matrix" values="0 0 0 0 0 0 0 0 0 0 0 0 0 0 0 0 0 0 0.1 0"/>
<feBlend mode="normal" in2="effect1_dropShadow_4980_20424" result="effect2_dropShadow_4980_20424"/>
<feBlend mode="normal" in="SourceGraphic" in2="effect2_dropShadow_4980_20424" result="shape"/>
</filter>
</defs>
</svg>
